<svg id="Layer_1" data-name="Layer 1" xmlns="http://www.w3.org/2000/svg" width="359.74" height="61.93" viewBox="0 0 359.74 61.93"><title>Nokia logo - Brandlogos.net</title><path d="M221.45,414.2H204.13V354h30L268.45,399V354h17.32V414.2H256.43l-35-45.68Zm147.2-18.6c0,8.36-1.45,11.25-3.85,14-3.67,4.12-9,5.36-19.32,5.36H315.91c-10.3,0-15.66-1.24-19.33-5.36-2.4-2.76-3.84-5.65-3.84-14V372.4c0-8.36,1.45-11.24,3.84-14,3.67-4.12,9-5.36,19.33-5.36h29.58c10.3,0,15.65,1.24,19.32,5.36,2.39,2.77,3.84,5.65,3.84,14V395.6Zm-23.9,4.12c4,0,5.35-.24,6.3-1.12s1.27-1.89,1.27-5.42V374.82c0-3.54-.39-4.59-1.27-5.42s-2.34-1.12-6.3-1.12H316.63c-4,0-5.35.23-6.29,1.12s-1.28,1.88-1.28,5.42v18.36c0,3.54.39,4.6,1.28,5.42s2.34,1.12,6.29,1.12h28.12Zm31,14.48h18.1V354h-18.1ZM424.4,354H448.3L416,382.18l36.38,32H426.85l-33-31.38Zm31.36,0h18.1V414.2h-18.1Zm87.12,60.16-5.36-10.48h-35L497.2,414.2h-20L509.29,354h22.5l32.08,60.16Zm-34.09-23.55h22.51L520,368.87Z" transform="translate(-204.13 -353.04)" style="fill:#124191;fill-rule:evenodd"/></svg>