<?xml version="1.0" encoding="UTF-8"?><svg id="Layer_1" xmlns="http://www.w3.org/2000/svg" viewBox="0 0 458.54 71.45"><path d="M52.75,0C23.61,0,0,11.77,0,26.26s23.61,26.28,52.75,26.28,52.73-11.75,52.73-26.28S81.86,0,52.75,0h0ZM47.4,45.14c-9.97,0-35.53-4.01-35.53-19.27,0-10.66,15.91-19.27,35.53-19.27s35.51,8.61,35.51,19.27-15.89,19.27-35.51,19.27h0Z"/><path d="M405.81,0c-29.13,0-52.75,11.77-52.75,26.26s23.61,26.28,52.75,26.28,52.73-11.75,52.73-26.28S434.92,0,405.81,0h0ZM400.46,45.14c-9.97,0-35.54-4-35.54-19.27,0-10.66,15.91-19.27,35.54-19.27s35.51,8.61,35.51,19.27-15.89,19.27-35.51,19.27h0Z"/><path d="M171.66,0c-8.77,0-17.03,1.07-24.31,2.96v6.62c5.49-1.88,11.99-2.97,18.96-2.97,19.62,0,35.51,8.61,35.51,19.27s-15.89,19.27-35.51,19.27c-13.51,0-25.26-4.1-31.27-10.12V1.56h-18.62v69.89h18.62v-26.27c9.49,4.56,22.39,7.37,36.62,7.37,29.11,0,52.73-11.75,52.73-26.28S200.78,0,171.66,0h0Z"/><path d="M290.58,0c-8.77,0-17.03,1.07-24.31,2.96v6.62c5.49-1.88,11.99-2.97,18.96-2.97,19.62,0,35.51,8.61,35.51,19.27s-15.89,19.27-35.51,19.27c-13.51,0-25.26-4.1-31.27-10.12V1.56h-18.62v69.89h18.62v-26.27c9.49,4.56,22.39,7.37,36.62,7.37,29.11,0,52.73-11.75,52.73-26.28S319.69,0,290.58,0h0Z"/></svg>