<?xml version="1.0" encoding="UTF-8"?><svg id="Layer_1" xmlns="http://www.w3.org/2000/svg" viewBox="0 0 148.95 29.8"><defs><style>.cls-1{fill:#0064fe;fill-rule:evenodd;}</style></defs><path class="cls-1" d="M109.76,0h-21.69v29.79h7.91V4.01h8.97c2.14,0,3.9,1.75,3.9,3.9v21.88h7.91V6.99c0-3.84-3.16-6.99-7-6.99Z"/><path class="cls-1" d="M141.96,0h-14.7c-3.84,0-6.99,3.15-6.99,6.99v15.81c0,3.84,3.15,6.99,6.99,6.99h14.7c3.85,0,6.99-3.15,6.99-6.99V6.99c0-3.84-3.14-6.99-6.99-6.99h0ZM137.15,4.01c2.14,0,3.9,1.75,3.9,3.9v13.98c0,2.14-1.75,3.9-3.9,3.9h-5.07c-2.14,0-3.9-1.75-3.9-3.9V7.91c0-2.14,1.75-3.9,3.9-3.9,0,0,5.07,0,5.07,0Z"/><path class="cls-1" d="M39.19,0h17.42v4.01h-12.61c-2.14,0-3.89,1.75-3.89,3.9v.76c0,2.14,1.75,3.9,3.89,3.9h12.61v4.01h-16.5v5.31c0,2.14,1.75,3.9,3.89,3.9h12.61v4.01h-17.42c-3.84,0-6.99-3.15-6.99-6.99V6.99c0-3.84,3.15-6.99,6.99-6.99Z"/><path class="cls-1" d="M67.13,0h17.42v4.01h-12.61c-2.14,0-3.9,1.75-3.9,3.9v13.98c0,2.14,1.75,3.9,3.9,3.9h12.61v4.01h-17.42c-3.85,0-6.99-3.15-6.99-6.99V6.99c0-3.84,3.14-6.99,6.99-6.99Z"/><path class="cls-1" d="M28.67,0H0v4.01h10.39v25.78h7.91V7.91c0-2.14,1.75-3.89,3.89-3.9h6.5V0h-.02Z"/></svg>