<?xml version="1.0" encoding="UTF-8"?><svg id="Layer_1" xmlns="http://www.w3.org/2000/svg" viewBox="0 0 366 366"><defs><style>.cls-1{fill:#ff6900;}.cls-2{fill:#fff;}</style></defs><path class="cls-1" d="M327.85,38.24C293.32,3.84,243.67,0,183,0S72.53,3.89,38.01,38.38C3.5,72.85,0,122.5,0,183.18s3.5,110.35,38.02,144.84c34.52,34.5,84.23,37.99,144.98,37.99s110.45-3.49,144.97-37.99c34.52-34.5,38.03-84.15,38.03-144.84s-3.55-110.45-38.15-144.94Z"/><path class="cls-2" d="M167.24,166.95c1.26,0,2.29,1.01,2.29,2.25v81.62c0,1.23-1.03,2.25-2.29,2.25h-31.21c-1.28,0-2.31-1.02-2.31-2.25v-81.62c0-1.23,1.03-2.25,2.31-2.25h31.21ZM160.58,112.94c22.42,0,45.85,1.03,57.41,12.59,11.37,11.38,12.6,34.05,12.65,56.06v69.23c0,1.23-1.03,2.25-2.31,2.25h-29.7c-1.27,0-2.31-1.02-2.31-2.25v-70.42c-.03-12.29-.74-24.93-7.08-31.29-5.46-5.47-15.64-6.73-26.23-6.99h-53.85c-1.27,0-2.3,1.02-2.3,2.25v106.45c0,1.23-1.05,2.25-2.31,2.25h-29.73c-1.27,0-2.29-1.02-2.29-2.25V115.2c0-1.25,1.03-2.26,2.29-2.26h85.77ZM289.53,112.94c1.26,0,2.31,1.01,2.31,2.26v135.62c0,1.23-1.05,2.25-2.31,2.25h-29.72c-1.27,0-2.31-1.02-2.31-2.25V115.2c0-1.25,1.03-2.26,2.31-2.26h29.72Z"/></svg>